HIERARCHY
ROOT joint_Root
{
	OFFSET 0.0 0.0 0.0
	CHANNELS 6 Xposition Yposition Zposition Zrotation Xrotation Yrotation 
	JOINT Hips
	{
		OFFSET -0.726466 93.3139 -2.00062
		CHANNELS 6 Xposition Yposition Zposition Zrotation Xrotation Yrotation 
		JOINT Spine
		{
			OFFSET 15.7357 0.0 0.0
			CHANNELS 6 Xposition Yposition Zposition Zrotation Xrotation Yrotation 
			JOINT Chest
			{
				OFFSET 8.98455 -0.406207 0.0
				CHANNELS 6 Xposition Yposition Zposition Zrotation Xrotation Yrotation 
				JOINT Neck
				{
					OFFSET 16.3773 0.0 0.0
					CHANNELS 6 Xposition Yposition Zposition Zrotation Xrotation Yrotation 
					JOINT Head
					{
						OFFSET 6.45672 0.0 0.0
						CHANNELS 6 Xposition Yposition Zposition Zrotation Xrotation Yrotation 
						End Site
						{
							OFFSET 0.0 0.0 0.0
						}
					}
				}
				JOINT Shoulder_L
				{
					OFFSET 12.9942 -0.242716 4.98039
					CHANNELS 6 Xposition Yposition Zposition Zrotation Xrotation Yrotation 
					JOINT UpperArm_L
					{
						OFFSET 5.34809 0.0 0.0
						CHANNELS 6 Xposition Yposition Zposition Zrotation Xrotation Yrotation 
						JOINT LowerArm_L
						{
							OFFSET 24.3286 1.87007e-05 0.0
							CHANNELS 6 Xposition Yposition Zposition Zrotation Xrotation Yrotation 
							JOINT Hand_L
							{
								OFFSET 22.2916 0.0 0.0
								CHANNELS 6 Xposition Yposition Zposition Zrotation Xrotation Yrotation 
								End Site
								{
									OFFSET 0.0 0.0 0.0
								}
							}
						}
					}
				}
				JOINT Shoulder_R
				{
					OFFSET 12.9945 -0.242716 -4.98039
					CHANNELS 6 Xposition Yposition Zposition Zrotation Xrotation Yrotation 
					JOINT UpperArm_R
					{
						OFFSET -5.34813 0.0 0.0
						CHANNELS 6 Xposition Yposition Zposition Zrotation Xrotation Yrotation 
						JOINT LowerArm_R
						{
							OFFSET -24.3289 0.000322201 0.0
							CHANNELS 6 Xposition Yposition Zposition Zrotation Xrotation Yrotation 
							JOINT Hand_R
							{
								OFFSET -22.2915 -0.000108084 0.0
								CHANNELS 6 Xposition Yposition Zposition Zrotation Xrotation Yrotation 
								End Site
								{
									OFFSET 0.0 0.0 0.0
								}
							}
						}
					}
				}
			}
		}
		JOINT UpperLeg_L
		{
			OFFSET -2.19248 -6.46944 0.0
			CHANNELS 6 Xposition Yposition Zposition Zrotation Xrotation Yrotation 
			JOINT LowerLeg_L
			{
				OFFSET 39.0811 0.0 -1.23785e-05
				CHANNELS 6 Xposition Yposition Zposition Zrotation Xrotation Yrotation 
				JOINT Foot_L
				{
					OFFSET 40.9854 0.0 -1.26872e-05
					CHANNELS 6 Xposition Yposition Zposition Zrotation Xrotation Yrotation 
					JOINT Toes_L
					{
						OFFSET 11.7543 0.0 0.0
						CHANNELS 6 Xposition Yposition Zposition Zrotation Xrotation Yrotation 
						End Site
						{
							OFFSET 0.0 0.0 0.0
						}
					}
				}
			}
		}
		JOINT UpperLeg_R
		{
			OFFSET -2.19251 6.46944 0.0
			CHANNELS 6 Xposition Yposition Zposition Zrotation Xrotation Yrotation 
			JOINT LowerLeg_R
			{
				OFFSET -39.0811 -0.00228153 -0.0401928
				CHANNELS 6 Xposition Yposition Zposition Zrotation Xrotation Yrotation 
				JOINT Foot_R
				{
					OFFSET -40.9854 0.0 0.0
					CHANNELS 6 Xposition Yposition Zposition Zrotation Xrotation Yrotation 
					JOINT Toes_R
					{
						OFFSET -11.7543 0.0 0.0
						CHANNELS 6 Xposition Yposition Zposition Zrotation Xrotation Yrotation 
						End Site
						{
							OFFSET 0.0 0.0 0.0
						}
					}
				}
			}
		}
	}
}
MOTION
Frames:	6
Frame Time:	0.0333333
0.000000 0.000000 0.000000 0.000000 0.000000 -0.000000 -190.248000 90.038700 197.173000 -14.887100 87.753900 108.090000 15.735700 0.000005 -0.000001 87.028900 81.774300 -85.932300 8.984550 -0.406207 -0.000000 8.672940 -0.839841 2.254850 16.377300 -0.000001 -0.000001 6.342800 -1.899790 -0.885487 6.456720 -0.000001 -0.000000 0.074090 -1.285040 4.295430 12.994200 -0.242716 4.980390 -88.508900 -3.627010 -67.634100 5.348090 -0.000007 -0.000001 -64.316900 34.563100 -8.090650 24.328600 0.000019 0.000005 6.282230 7.245120 -41.117600 22.291600 -0.000001 0.000005 4.075140 5.546010 -8.520150 12.994500 -0.242716 -4.980390 88.043000 4.644710 -67.122800 -5.348130 -0.000001 -0.000004 -55.796400 31.247600 -14.814900 -24.328900 0.000322 -0.000009 3.060040 4.831950 -32.410100 -22.291500 -0.000108 -0.000004 3.172710 5.455750 -4.846930 -2.192480 -6.469440 -0.000000 -172.421000 -5.212780 -13.954700 39.081100 -0.000007 -0.000012 0.119457 -0.049287 67.577100 40.985400 -0.000006 -0.000013 3.814790 -7.543990 -53.934800 11.754300 -0.000000 0.000003 -0.004889 -0.060398 -19.034200 -2.192510 6.469440 -0.000001 -177.887000 11.510900 168.887000 -39.081100 -0.002282 -0.040193 0.089076 -0.122282 35.051100 -40.985400 0.000008 0.000006 4.544830 -4.120910 -70.715400 -11.754300 -0.000006 -0.000006 -0.005193 -0.063320 -19.149600
0.000000 0.000000 0.000000 0.000000 0.000000 -0.000000 -187.663000 90.621900 197.276000 24.685200 88.526700 68.300300 15.735700 0.000005 -0.000001 91.247900 81.919200 -90.622900 8.984550 -0.406207 -0.000000 8.390230 0.353736 1.222790 16.377300 -0.000001 -0.000001 6.480060 -1.743070 -0.873743 6.456720 -0.000001 -0.000000 0.213748 -2.121580 4.083650 12.994200 -0.242716 4.980390 -88.394700 -3.730850 -66.699100 5.348090 -0.000007 -0.000001 -66.682200 32.758200 -4.624610 24.328600 0.000019 0.000005 5.560420 6.934010 -38.881200 22.291600 -0.000001 0.000005 3.661520 5.537910 -8.147510 12.994500 -0.242716 -4.980390 88.319900 4.180620 -68.083400 -5.348130 -0.000001 -0.000004 -53.644900 31.522500 -19.043800 -24.328900 0.000322 -0.000009 3.014920 4.506420 -33.846700 -22.291500 -0.000108 -0.000004 3.388640 5.455460 -4.835830 -2.192480 -6.469440 -0.000000 -174.176000 -6.949420 -17.981700 39.081100 -0.000007 -0.000012 0.111282 -0.051371 65.218300 40.985400 -0.000006 -0.000013 2.577870 -6.142270 -56.045400 11.754300 -0.000000 0.000003 -0.004511 -0.056659 -18.881800 -2.192510 6.469440 -0.000001 -179.073000 11.451100 172.163000 -39.081100 -0.002282 -0.040193 0.075432 -0.116122 31.848300 -40.985400 0.000008 0.000006 4.624480 -2.971590 -70.821400 -11.754300 -0.000006 -0.000006 -0.005534 -0.066542 -19.280900
0.000000 0.000000 0.000000 0.000000 0.000000 -0.000000 -185.077000 91.021200 197.368000 72.586500 87.879300 20.373800 15.735700 0.000005 -0.000001 95.466700 81.861900 -95.301000 8.984550 -0.406207 -0.000000 8.436190 1.544280 0.217277 16.377300 -0.000001 -0.000001 6.347250 -1.420850 -0.827873 6.456720 -0.000001 -0.000000 0.254978 -2.845250 3.957400 12.994200 -0.242716 4.980390 -88.339400 -3.692330 -65.762800 5.348090 -0.000007 -0.000001 -68.108800 30.931300 -1.754340 24.328600 0.000019 0.000005 4.556230 6.102510 -36.854500 22.291600 -0.000001 0.000005 3.912430 5.535760 -8.054050 12.994500 -0.242716 -4.980390 88.504500 3.893870 -68.970800 -5.348130 -0.000001 -0.000004 -50.931900 31.354400 -23.648000 -24.328900 0.000322 -0.000009 2.660010 3.771370 -35.246600 -22.291500 -0.000108 -0.000004 3.585480 5.454470 -4.800230 -2.192480 -6.469440 -0.000000 -175.683000 -8.232440 -20.791700 39.081100 -0.000007 -0.000012 0.090269 -0.052180 59.967500 40.985400 -0.000006 -0.000013 1.752730 -5.346590 -58.048400 11.754300 -0.000000 0.000003 -0.004248 -0.054003 -18.773600 -2.192510 6.469440 -0.000001 179.746000 11.248700 175.483000 -39.081100 -0.002282 -0.040193 0.061005 -0.104835 28.828300 -40.985400 0.000008 0.000006 4.552310 -1.711460 -71.009300 -11.754300 -0.000006 -0.000006 -0.005497 -0.066199 -19.266900
0.000000 0.000000 0.000000 0.000000 0.000000 -0.000000 -182.563000 91.203800 197.428000 88.207900 86.581200 4.698860 15.735700 0.000005 -0.000001 98.926100 81.767000 -99.115900 8.984550 -0.406207 -0.000000 8.511130 2.541500 -0.568419 16.377300 -0.000001 -0.000001 6.210120 -1.017720 -0.971189 6.456720 -0.000001 -0.000000 0.181118 -3.345210 3.902720 12.994200 -0.242716 4.980390 -88.372400 -3.495410 -65.010900 5.348090 -0.000007 -0.000001 -69.002000 29.020500 0.902388 24.328600 0.000019 0.000005 4.019180 5.761380 -34.988900 22.291600 -0.000001 0.000005 3.916230 5.526170 -7.629020 12.994500 -0.242716 -4.980390 88.640800 3.682120 -69.722600 -5.348130 -0.000001 -0.000004 -47.741100 30.783600 -28.464000 -24.328900 0.000322 -0.000009 2.588570 3.506830 -36.480600 -22.291500 -0.000108 -0.000004 3.745650 5.454800 -4.811730 -2.192480 -6.469440 -0.000000 -176.797000 -8.789210 -22.639000 39.081100 -0.000007 -0.000012 0.062706 -0.048974 52.007700 40.985400 -0.000006 -0.000013 1.824050 -5.584310 -59.077600 11.754300 -0.000000 0.000003 -0.004297 -0.054501 -18.793900 -2.192510 6.469440 -0.000001 178.708000 10.878100 178.590000 -39.081100 -0.002282 -0.040193 0.051169 -0.097700 26.098500 -40.985400 0.000008 0.000006 4.530890 -0.639457 -71.495800 -11.754300 -0.000006 -0.000006 -0.006077 -0.071537 -19.484600
0.000000 0.000000 0.000000 0.000000 0.000000 -0.000000 -180.101000 91.075500 197.465000 90.215000 85.174400 2.421940 15.735700 0.000005 -0.000001 102.128000 81.671400 -102.522000 8.984550 -0.406207 -0.000000 8.543350 3.480220 -1.046840 16.377300 -0.000001 -0.000001 5.968000 -0.632265 -1.111150 6.456720 -0.000001 -0.000000 0.106078 -3.690950 3.911120 12.994200 -0.242716 4.980390 -88.397400 -3.337850 -64.333700 5.348090 -0.000007 -0.000001 -69.690600 27.463600 2.909170 24.328600 0.000019 0.000005 4.063120 6.316340 -32.850500 22.291600 -0.000001 0.000005 4.063180 5.519580 -7.344130 12.994500 -0.242716 -4.980390 88.738200 3.550180 -70.420200 -5.348130 -0.000001 -0.000004 -44.653000 29.596900 -33.040000 -24.328900 0.000322 -0.000009 2.572950 3.358920 -37.499400 -22.291500 -0.000108 -0.000004 3.998200 5.457210 -4.899330 -2.192480 -6.469440 -0.000000 -177.063000 -8.872220 -23.534700 39.081100 -0.000007 -0.000012 0.039900 -0.044863 41.647500 40.985400 -0.000006 -0.000013 1.693470 -5.750150 -59.092500 11.754300 -0.000000 0.000003 -0.004188 -0.053384 -18.748400 -2.192510 6.469440 -0.000001 178.074000 10.418500 -178.994000 -39.081100 -0.002282 -0.040193 0.045223 -0.092998 24.258700 -40.985400 0.000008 0.000006 4.400950 0.300259 -72.534800 -11.754300 -0.000006 -0.000006 -0.006479 -0.075130 -19.631100
0.000000 0.000000 0.000000 0.000000 0.000000 -0.000000 -177.528000 90.657400 197.452000 86.216900 83.674300 6.001020 15.735700 0.000005 -0.000001 105.497000 81.599900 -105.887000 8.984550 -0.406207 -0.000000 8.457870 4.465380 -1.109990 16.377300 -0.000001 -0.000001 5.630370 -0.281640 -1.173190 6.456720 -0.000001 -0.000000 0.196645 -3.841450 3.755360 12.994200 -0.242716 4.980390 -88.311100 -3.449550 -63.893700 5.348090 -0.000007 -0.000001 -70.701200 26.320900 4.515270 24.328600 0.000019 0.000005 4.118320 7.066320 -30.341900 22.291600 -0.000001 0.000005 4.192360 5.508050 -6.860930 12.994500 -0.242716 -4.980390 88.848800 3.343780 -70.989800 -5.348130 -0.000001 -0.000004 -42.245300 27.994600 -36.948000 -24.328900 0.000322 -0.000009 2.570670 3.255600 -38.341300 -22.291500 -0.000108 -0.000004 4.299760 5.456590 -4.876760 -2.192480 -6.469440 -0.000000 -176.350000 -8.729680 -23.482100 39.081100 -0.000007 -0.000012 0.021560 -0.037932 29.612500 40.985400 -0.000006 -0.000013 1.207910 -5.620130 -58.005300 11.754300 -0.000000 0.000003 -0.003819 -0.049551 -18.592300 -2.192510 6.469440 -0.000001 177.743000 10.480800 -177.029000 -39.081100 -0.002282 -0.040193 0.037459 -0.079605 23.214800 -40.985400 0.000008 0.000006 4.185170 1.834320 -74.069900 -11.754300 -0.000006 -0.000006 -0.006395 -0.074381 -19.600600
